<svg width="40" fill="none" aria-label="Logo" className="flex-shrink-0 stroke-slate-700 dark:stroke-slate-50 size-8 sm:size-9" viewBox="0 0 600 500"><rect width="172.095" height="418.666" x="379.447" y="43.748" rx="86.047" strokeWidth="30"/><path d="M231.995 351.6L306.965 221.807L381.934 92.0154C404.822 52.3913 458.092 33.3388 500.917 49.4604C543.742 65.5819 559.905 110.773 537.018 150.397L387.079 409.981C364.191 449.605 310.921 468.657 268.096 452.536C225.271 436.414 209.108 391.224 231.995 351.6Z" strokeWidth="30"/><path d="M278.239 272.481L278.206 272.539L278.173 272.597L201.072 408.622C180.402 445.088 131.538 462.758 92.2557 447.97C53.2008 433.268 38.461 392.055 59.3333 355.92L216.867 83.187C237.575 47.3364 285.772 30.0984 324.519 44.6849C363.283 59.2777 377.899 100.192 357.157 136.049L278.239 272.481Z" strokeWidth="30"/></svg>